<?xml version="1.0" encoding="UTF-8"?>
<svg width="141px" height="57px" viewBox="0 0 141 57" version="1.1" xmlns="http://www.w3.org/2000/svg" xmlns:xlink="http://www.w3.org/1999/xlink">
    <title>read_bg</title>
    <g id="Page-1" stroke="none" stroke-width="1" fill="none" fill-rule="evenodd" opacity="0.698916481">
        <g id="Desktop" transform="translate(-419.000000, -939.000000)" fill-rule="nonzero">
            <g id="read_bg" transform="translate(419.000000, 939.000000)">
                <g id="Group" transform="translate(0.000000, 27.722772)" fill="#515151">
                    <path d="M66.9181518,3.00792079 L66.9181518,25.1861386 L3.15577558,25.1861386 L3.15577558,3.00792079 L66.9181518,3.00792079 M66.9181518,0.235643564 L3.15577558,0.235643564 C1.62640264,0.235643564 0.38349835,1.47854785 0.38349835,3.00792079 L0.38349835,25.1861386 C0.38349835,26.7155116 1.62640264,27.9584158 3.15577558,27.9584158 L66.9181518,27.9584158 C68.4475248,27.9584158 69.690429,26.7155116 69.690429,25.1861386 L69.690429,3.00792079 C69.690429,1.47854785 68.4475248,0.235643564 66.9181518,0.235643564 L66.9181518,0.235643564 Z" id="Shape"></path>
                    <rect id="Rectangle" x="17.950495" y="0.725412541" width="1.05346535" height="26.2811881"></rect>
                    <rect id="Rectangle" x="26.3458746" y="0.725412541" width="1.05346535" height="26.2811881"></rect>
                    <rect id="Rectangle" x="34.7412541" y="0.725412541" width="1.05346535" height="26.2811881"></rect>
                    <rect id="Rectangle" x="43.1320132" y="0.725412541" width="1.05346535" height="26.2811881"></rect>
                    <rect id="Rectangle" x="51.5273927" y="0.725412541" width="1.05346535" height="26.2811881"></rect>
                    <rect id="Rectangle" x="59.9227723" y="0.725412541" width="1.05346535" height="26.2811881"></rect>
                    <rect id="Rectangle" x="9.55973597" y="0.725412541" width="1.05346535" height="26.2811881"></rect>
                </g>
                <path d="M69.690429,3.04026403 L99.3907591,27.7089109 L39.990099,27.7089109 L69.690429,3.04026403 M69.690429,0.0184818482 C69.2468647,0.0184818482 68.8079208,0.166336634 68.4475248,0.466666667 L36.460066,27.0343234 C35.060066,28.1986799 35.8825083,30.4765677 37.7029703,30.4765677 L101.677888,30.4765677 C103.49835,30.4765677 104.325413,28.1986799 102.920792,27.0343234 L70.9333333,0.466666667 C70.5729373,0.170957096 70.1293729,0.0184818482 69.690429,0.0184818482 L69.690429,0.0184818482 Z" id="Shape" fill="#515051"></path>
                <g id="Group" transform="translate(66.534653, 27.722772)">
                    <path d="M52.6871287,26.5722772 C52.4237624,26.5722772 52.1927393,26.3874587 52.1280528,26.1287129 C50.4277228,19.1194719 44.130033,14.2264026 36.8112211,14.2264026 C29.4924092,14.2264026 23.190099,19.1194719 21.4943894,26.1287129 C21.429703,26.3920792 21.2033003,26.5722772 20.9353135,26.5722772 L2.45808581,26.5722772 C2.07920792,26.5722772 1.7650165,26.2765677 1.7650165,25.9161716 L1.7650165,2.30561056 C1.7650165,1.94521452 2.07458746,1.64950495 2.45808581,1.64950495 L71.1643564,1.64950495 C71.5478548,1.64950495 71.8574257,1.94521452 71.8574257,2.30561056 L71.8574257,25.9161716 C71.8574257,26.2765677 71.5478548,26.5722772 71.1643564,26.5722772 L52.6871287,26.5722772 Z" id="Path" fill="#A9A9AA"></path>
                    <path d="M70.4712871,3.03564356 L70.4712871,25.1907591 L53.3155116,25.1907591 C51.2547855,17.890429 44.559736,12.8448845 36.8112211,12.8448845 C29.0627063,12.8448845 22.3676568,17.890429 20.3069307,25.1907591 L3.15115512,25.1907591 L3.15115512,3.03564356 L70.4712871,3.03564356 M71.1643564,0.263366337 L2.45808581,0.263366337 C1.31221122,0.263366337 0.378877888,1.17821782 0.378877888,2.30561056 L0.378877888,25.9161716 C0.378877888,27.0435644 1.30759076,27.9584158 2.45808581,27.9584158 L20.9353135,27.9584158 C21.850165,27.9584158 22.6264026,27.330033 22.8389439,26.4521452 C24.3452145,20.2330033 30.0283828,15.6079208 36.8112211,15.6079208 C43.5940594,15.6079208 49.2726073,20.2330033 50.7834983,26.4521452 C50.9960396,27.330033 51.7722772,27.9584158 52.6871287,27.9584158 L71.1643564,27.9584158 C72.310231,27.9584158 73.2435644,27.0435644 73.2435644,25.9161716 L73.2435644,2.30561056 C73.2435644,1.17821782 72.3148515,0.263366337 71.1643564,0.263366337 L71.1643564,0.263366337 Z" id="Shape" fill="#515151"></path>
                </g>
            </g>
        </g>
    </g>
</svg>