<?xml version="1.0" encoding="UTF-8"?>
<svg width="106px" height="45px" viewBox="0 0 106 45" version="1.1" xmlns="http://www.w3.org/2000/svg" xmlns:xlink="http://www.w3.org/1999/xlink">
    <title>Group 7</title>
    <g id="Page-1" stroke="none" stroke-width="1" fill="none" fill-rule="evenodd">
        <g id="Mobile" transform="translate(-107.000000, -741.000000)">
            <g id="Group-7" transform="translate(108.000000, 742.000000)">
                <g id="parts01-copy" transform="translate(26.000000, 0.000000)" stroke="#323333" stroke-linecap="round" stroke-linejoin="round" stroke-width="0.74000001">
                    <polygon id="Path" points="0 22.2000003 51.8000007 22.2000003 25.9000003 0"></polygon>
                </g>
                <g id="parts02-copy" transform="translate(0.000000, 22.000000)">
                    <rect id="Rectangle" stroke="#323333" stroke-width="0.74000001" stroke-linecap="round" stroke-linejoin="round" x="0" y="0.370000005" width="51.8000007" height="20.7200003"></rect>
                    <rect id="Rectangle" fill="#323333" fill-rule="nonzero" x="1.04093335" y="0" width="1" height="21.4600003"></rect>
                    <rect id="Rectangle" fill="#323333" fill-rule="nonzero" x="1.78093336" y="0" width="1" height="21.4600003"></rect>
                    <rect id="Rectangle" fill="#323333" fill-rule="nonzero" x="2.52093337" y="0" width="1" height="21.4600003"></rect>
                    <rect id="Rectangle" fill="#323333" fill-rule="nonzero" x="3.26093338" y="0" width="1" height="21.4600003"></rect>
                    <rect id="Rectangle" fill="#323333" fill-rule="nonzero" x="4.37093339" y="0" width="1" height="21.4600003"></rect>
                    <rect id="Rectangle" fill="#323333" fill-rule="nonzero" x="5.1109334" y="0" width="1" height="21.4600003"></rect>
                    <rect id="Rectangle" fill="#323333" fill-rule="nonzero" x="5.85093341" y="0" width="1" height="21.4600003"></rect>
                    <rect id="Rectangle" fill="#323333" fill-rule="nonzero" x="6.59093342" y="0" width="1" height="21.4600003"></rect>
                    <rect id="Rectangle" fill="#323333" fill-rule="nonzero" x="7.70093343" y="0" width="1" height="21.4600003"></rect>
                    <rect id="Rectangle" fill="#323333" fill-rule="nonzero" x="8.44093344" y="0" width="1" height="21.4600003"></rect>
                    <rect id="Rectangle" fill="#323333" fill-rule="nonzero" x="9.18093345" y="0" width="1" height="21.4600003"></rect>
                    <rect id="Rectangle" fill="#323333" fill-rule="nonzero" x="9.92093346" y="0" width="1" height="21.4600003"></rect>
                    <rect id="Rectangle" fill="#323333" fill-rule="nonzero" x="10.6609335" y="0" width="1" height="21.4600003"></rect>
                    <rect id="Rectangle" fill="#323333" fill-rule="nonzero" x="11.7709335" y="0" width="1" height="21.4600003"></rect>
                    <rect id="Rectangle" fill="#323333" fill-rule="nonzero" x="12.5109335" y="0" width="1" height="21.4600003"></rect>
                    <rect id="Rectangle" fill="#323333" fill-rule="nonzero" x="13.2509335" y="0" width="1" height="21.4600003"></rect>
                    <rect id="Rectangle" fill="#323333" fill-rule="nonzero" x="13.9909335" y="0" width="1" height="21.4600003"></rect>
                    <rect id="Rectangle" fill="#323333" fill-rule="nonzero" x="15.1009335" y="0" width="1" height="21.4600003"></rect>
                    <rect id="Rectangle" fill="#323333" fill-rule="nonzero" x="15.8409335" y="0" width="1" height="21.4600003"></rect>
                    <rect id="Rectangle" fill="#323333" fill-rule="nonzero" x="16.5809335" y="0" width="1" height="21.4600003"></rect>
                    <rect id="Rectangle" fill="#323333" fill-rule="nonzero" x="17.3209336" y="0" width="1" height="21.4600003"></rect>
                    <rect id="Rectangle" fill="#323333" fill-rule="nonzero" x="18.4309336" y="0" width="1" height="21.4600003"></rect>
                    <rect id="Rectangle" fill="#323333" fill-rule="nonzero" x="19.1709336" y="0" width="1" height="21.4600003"></rect>
                    <rect id="Rectangle" fill="#323333" fill-rule="nonzero" x="19.9109336" y="0" width="1" height="21.4600003"></rect>
                    <rect id="Rectangle" fill="#323333" fill-rule="nonzero" x="20.6509336" y="0" width="1" height="21.4600003"></rect>
                    <rect id="Rectangle" fill="#323333" fill-rule="nonzero" x="21.7609336" y="0" width="1" height="21.4600003"></rect>
                    <rect id="Rectangle" fill="#323333" fill-rule="nonzero" x="22.5009336" y="0" width="1" height="21.4600003"></rect>
                    <rect id="Rectangle" fill="#323333" fill-rule="nonzero" x="23.2409336" y="0" width="1" height="21.4600003"></rect>
                    <rect id="Rectangle" fill="#323333" fill-rule="nonzero" x="23.9809336" y="0" width="1" height="21.4600003"></rect>
                    <rect id="Rectangle" fill="#323333" fill-rule="nonzero" x="25.0909337" y="0" width="1" height="21.4600003"></rect>
                    <rect id="Rectangle" fill="#323333" fill-rule="nonzero" x="25.8309337" y="0" width="1" height="21.4600003"></rect>
                    <rect id="Rectangle" fill="#323333" fill-rule="nonzero" x="26.5709337" y="0" width="1" height="21.4600003"></rect>
                    <rect id="Rectangle" fill="#323333" fill-rule="nonzero" x="27.3109337" y="0" width="1" height="21.4600003"></rect>
                    <rect id="Rectangle" fill="#323333" fill-rule="nonzero" x="28.4209337" y="0" width="1" height="21.4600003"></rect>
                    <rect id="Rectangle" fill="#323333" fill-rule="nonzero" x="29.1609337" y="0" width="1" height="21.4600003"></rect>
                    <rect id="Rectangle" fill="#323333" fill-rule="nonzero" x="29.9009337" y="0" width="1" height="21.4600003"></rect>
                    <rect id="Rectangle" fill="#323333" fill-rule="nonzero" x="30.6409337" y="0" width="1" height="21.4600003"></rect>
                    <rect id="Rectangle" fill="#323333" fill-rule="nonzero" x="31.3809337" y="0" width="1" height="21.4600003"></rect>
                    <rect id="Rectangle" fill="#323333" fill-rule="nonzero" x="32.4909338" y="0" width="1" height="21.4600003"></rect>
                    <rect id="Rectangle" fill="#323333" fill-rule="nonzero" x="33.2309338" y="0" width="1" height="21.4600003"></rect>
                    <rect id="Rectangle" fill="#323333" fill-rule="nonzero" x="33.9709338" y="0" width="1" height="21.4600003"></rect>
                    <rect id="Rectangle" fill="#323333" fill-rule="nonzero" x="34.7109338" y="0" width="1" height="21.4600003"></rect>
                    <rect id="Rectangle" fill="#323333" fill-rule="nonzero" x="35.8209338" y="0" width="1" height="21.4600003"></rect>
                    <rect id="Rectangle" fill="#323333" fill-rule="nonzero" x="36.5609338" y="0" width="1" height="21.4600003"></rect>
                    <rect id="Rectangle" fill="#323333" fill-rule="nonzero" x="37.3009338" y="0" width="1" height="21.4600003"></rect>
                    <rect id="Rectangle" fill="#323333" fill-rule="nonzero" x="38.0409338" y="0" width="1" height="21.4600003"></rect>
                    <rect id="Rectangle" fill="#323333" fill-rule="nonzero" x="39.1509338" y="0" width="1" height="21.4600003"></rect>
                    <rect id="Rectangle" fill="#323333" fill-rule="nonzero" x="39.8909338" y="0" width="1" height="21.4600003"></rect>
                    <rect id="Rectangle" fill="#323333" fill-rule="nonzero" x="40.6309339" y="0" width="1" height="21.4600003"></rect>
                    <rect id="Rectangle" fill="#323333" fill-rule="nonzero" x="41.3709339" y="0" width="1" height="21.4600003"></rect>
                    <rect id="Rectangle" fill="#323333" fill-rule="nonzero" x="42.4809339" y="0" width="1" height="21.4600003"></rect>
                    <rect id="Rectangle" fill="#323333" fill-rule="nonzero" x="43.2209339" y="0" width="1" height="21.4600003"></rect>
                    <rect id="Rectangle" fill="#323333" fill-rule="nonzero" x="43.9609339" y="0" width="1" height="21.4600003"></rect>
                    <rect id="Rectangle" fill="#323333" fill-rule="nonzero" x="44.7009339" y="0" width="1" height="21.4600003"></rect>
                    <rect id="Rectangle" fill="#323333" fill-rule="nonzero" x="45.8109339" y="0" width="1" height="21.4600003"></rect>
                    <rect id="Rectangle" fill="#323333" fill-rule="nonzero" x="46.5509339" y="0" width="1" height="21.4600003"></rect>
                    <rect id="Rectangle" fill="#323333" fill-rule="nonzero" x="47.2909339" y="0" width="1" height="21.4600003"></rect>
                    <rect id="Rectangle" fill="#323333" fill-rule="nonzero" x="48.030934" y="0" width="1" height="21.4600003"></rect>
                    <rect id="Rectangle" fill="#323333" fill-rule="nonzero" x="49.140934" y="0" width="1" height="21.4600003"></rect>
                    <rect id="Rectangle" fill="#323333" fill-rule="nonzero" x="49.880934" y="0" width="1" height="21.4600003"></rect>
                    <rect id="Rectangle" fill="#323333" fill-rule="nonzero" x="50.620934" y="0" width="1" height="21.4600003"></rect>
                    <rect id="Rectangle" fill="#323333" fill-rule="nonzero" x="51.360934" y="0" width="1" height="21.4600003"></rect>
                </g>
                <g id="parts03-copy" transform="translate(78.000000, 33.000000) scale(-1, 1) translate(-78.000000, -33.000000) translate(52.000000, 22.500000)" fill="#545454" fill-rule="nonzero" stroke="#323333" stroke-linecap="round" stroke-linejoin="round" stroke-width="0.74000001">
                    <path d="M0,0 L0,20.7200003 L15.5400002,20.7200003 L15.5400002,20.6785603 C15.5400002,14.9568902 20.1783303,10.3185601 25.9000003,10.3185601 C31.6216704,10.3185601 36.2600005,14.9568902 36.2600005,20.6785603 L36.2600005,20.7200003 L51.8000007,20.7200003 L51.8000007,0 L0,0 Z" id="Path"></path>
                </g>
            </g>
        </g>
    </g>
</svg>