<?xml version="1.0" encoding="UTF-8"?>
<svg width="194px" height="39px" viewBox="0 0 194 39" version="1.1" xmlns="http://www.w3.org/2000/svg" xmlns:xlink="http://www.w3.org/1999/xlink">
    <title>logo</title>
    <g id="Page-1" stroke="none" stroke-width="1" fill="none" fill-rule="evenodd">
        <g id="Desktop" transform="translate(-26.000000, -20.000000)" fill-rule="nonzero">
            <g id="logo" transform="translate(26.000000, 20.000000)">
                <g id="Group" transform="translate(51.705309, 3.993499)" fill="#323333">
                    <polygon id="Path" points="28.6123727 33.9300325 28.568234 11.175493 17.4557963 30.1383099 15.4359263 30.1383099 4.32348862 11.3100108 4.32348862 33.9321343 0.107193933 33.9321343 0.107193933 2.69666306 3.70764897 2.69666306 16.5309859 24.648299 29.17987 2.69666306 32.780325 2.69666306 32.8244637 33.9300325 28.6123727 33.9300325"></polygon>
                    <path d="M42.7745829,1.42504875 C43.3168581,2.0051571 43.5879957,2.72608884 43.5879957,3.58994583 C43.5879957,4.03553629 43.543857,4.47482124 43.4555796,4.90569881 C43.3673023,5.33657638 43.1760347,5.95451788 42.8838787,6.75742145 L40.7757313,13.0040953 L38.0097075,13.0040953 L39.6344312,6.35596966 C39.0774431,6.14788732 38.6318527,5.79898158 38.295558,5.3071506 C37.9592633,4.81531961 37.7911159,4.24361863 37.7911159,3.58994583 C37.7911159,2.69666306 38.068559,1.96942579 38.6255471,1.40403034 C39.1825352,0.838634886 39.8845504,0.556976741 40.7336945,0.556976741 C41.5513109,0.554886241 42.2323077,0.844940412 42.7745829,1.42504875 Z" id="Path"></path>
                    <path d="M50.8330444,33.4171831 C49.0759047,32.8980282 47.6991983,32.2338462 46.7050271,31.4309426 L48.4621668,28.0406717 C49.4857638,28.7847237 50.7300542,29.379545 52.1950379,29.8251354 C53.6579198,30.2707259 55.1376165,30.4935211 56.6299242,30.4935211 C60.3186566,30.4935211 62.1640737,29.4215818 62.1640737,27.2819068 C62.1640737,26.5672806 61.9160563,26.003987 61.4179198,25.5857205 C60.9197833,25.1695558 60.2976381,24.8647887 59.5514843,24.6714193 C58.8053304,24.4780498 57.7439003,24.263662 56.3671939,24.024052 C54.492351,23.7276923 52.964312,23.3850921 51.7767714,22.9983532 C50.5913326,22.6116143 49.5740412,21.9579415 48.7248971,21.0352329 C47.875753,20.1146262 47.4511809,18.8198917 47.4511809,17.1531311 C47.4511809,15.0113543 48.3297508,13.2941495 50.0868906,11.999415 C51.8440303,10.7046804 54.200195,10.059415 57.1574865,10.059415 C58.7086457,10.059415 60.259805,10.2527844 61.8130661,10.6395233 C63.3642254,11.0262622 64.6379415,11.547519 65.6342145,12.2011918 L63.8329361,15.5914626 C61.9286674,14.3429686 59.6902059,13.7166197 57.1133478,13.7166197 C55.3267822,13.7166197 53.9647887,14.0150813 53.0294691,14.6099025 C52.0920477,15.2047237 51.6233369,15.9929144 51.6233369,16.9744745 C51.6233369,17.7479523 51.8860672,18.3574865 52.4136295,18.8030769 C52.9411918,19.2486674 53.5927627,19.5765547 54.3683424,19.7846371 C55.143922,19.9927194 56.2347779,20.2302275 57.6409101,20.4992633 C59.5136511,20.8271506 61.0290791,21.1760563 62.1871939,21.5480823 C63.3432069,21.9201083 64.3310726,22.5527627 65.1507909,23.4439437 C65.9705092,24.3372264 66.3803684,25.5857205 66.3803684,27.1915276 C66.3803684,29.3333044 65.4807801,31.0357963 63.6795016,32.3011051 C61.8782232,33.5664139 59.4253738,34.196979 56.3230553,34.196979 C54.4187866,34.1990683 52.5901842,33.9384399 50.8330444,33.4171831 Z" id="Path"></path>
                    <polygon id="Path" points="91.4574431 20.0536728 85.8350163 25.8547562 85.8350163 33.9300325 81.4442687 33.9300325 81.4442687 2.69666306 85.8350163 2.69666306 85.8350163 20.1419502 102.52364 2.69666306 107.530228 2.69666306 94.3979198 16.7516793 108.364659 33.9300325 103.225655 33.9300325"></polygon>
                    <path d="M115.107367,4.92881907 C114.565092,4.3928494 114.293954,3.7391766 114.293954,2.96569881 C114.293954,2.19222102 114.565092,1.53014085 115.107367,0.979458288 C115.649642,0.428775731 116.330639,0.153434453 117.150358,0.153434453 C117.970076,0.153434453 118.651073,0.414062839 119.193348,0.933217768 C119.735623,1.45447454 120.006761,2.10184182 120.006761,2.87321777 C120.006761,3.67612134 119.735623,4.35291441 119.193348,4.90359697 C118.651073,5.45427952 117.970076,5.72963312 117.150358,5.72963312 C116.330639,5.73172264 115.649642,5.46478873 115.107367,4.92881907 Z M115.04221,10.2822102 L119.258505,10.2822102 L119.258505,33.9300325 L115.04221,33.9300325 L115.04221,10.2822102 Z" id="Shape"></path>
                    <path d="M142.139155,32.5470206 C141.525417,33.0829902 140.762449,33.4907476 139.854453,33.7744962 C138.946457,34.056143 138.009036,34.1990683 137.04429,34.1990683 C134.700737,34.1990683 132.886847,33.5601083 131.598418,32.2800867 C130.309989,31.0021668 129.666826,29.1714626 129.666826,26.7921777 L129.666826,13.8069989 L125.713261,13.8069989 L125.713261,10.2822102 L129.666826,10.2822102 L129.666826,5.10747562 L133.88312,5.10747562 L133.88312,10.284312 L140.55857,10.284312 L140.55857,13.8091008 L133.88312,13.8091008 L133.88312,26.615623 C133.88312,27.8956446 134.198397,28.8772048 134.826847,29.5603034 C135.455298,30.2455038 136.356988,30.5860022 137.527714,30.5860022 C138.816143,30.5860022 139.913304,30.2139762 140.8213,29.4699242 L142.139155,32.5470206 Z" id="Path"></path>
                </g>
                <path d="M35.8385049,13.872156 L35.8385049,23.9609967 L6.83308776,23.9609967 L6.83308776,13.872156 L35.8385049,13.872156 M35.8385049,12.6110509 L6.83308776,12.6110509 C6.13737811,12.6110509 5.57198267,13.1764464 5.57198267,13.872156 L5.57198267,23.9609967 C5.57198267,24.6567064 6.13737811,25.2221018 6.83308776,25.2221018 L35.8385049,25.2221018 C36.5342145,25.2221018 37.09961,24.6567064 37.09961,23.9609967 L37.09961,13.872156 C37.09961,13.1764464 36.5363164,12.6110509 35.8385049,12.6110509 L35.8385049,12.6110509 Z" id="Shape" fill="#515151"></path>
                <rect id="Rectangle" fill="#515151" x="13.5652871" y="12.8338462" width="1" height="11.9552763"></rect>
                <rect id="Rectangle" fill="#515151" x="17.3822319" y="12.8338462" width="1" height="11.9552763"></rect>
                <rect id="Rectangle" fill="#515151" x="21.2012784" y="12.8338462" width="1" height="11.9552763"></rect>
                <rect id="Rectangle" fill="#515151" x="25.020325" y="12.8338462" width="1" height="11.9552763"></rect>
                <rect id="Rectangle" fill="#515151" x="28.8372698" y="12.8338462" width="1" height="11.9552763"></rect>
                <rect id="Rectangle" fill="#515151" x="32.6563164" y="12.8338462" width="1" height="11.9552763"></rect>
                <rect id="Rectangle" fill="#515151" x="9.74624052" y="12.8338462" width="1" height="11.9552763"></rect>
                <path d="M15.5136945,1.38931744 L29.0243337,12.6110509 L2.00305525,12.6110509 L15.5136945,1.38931744 M15.5136945,0.0147128927 C15.3119177,0.0147128927 15.1122427,0.081971831 14.948299,0.218591549 L0.397248104,12.304182 C-0.239609967,12.835948 0.134517876,13.872156 0.962643554,13.872156 L30.0647454,13.872156 C30.8928711,13.872156 31.2691008,12.835948 30.6301408,12.3062839 L16.0790899,0.218591549 C15.9151463,0.0840736728 15.7154713,0.0147128927 15.5136945,0.0147128927 L15.5136945,0.0147128927 Z" id="Shape" fill="#515051"></path>
                <g id="Group" transform="translate(1.681473, 23.960997)">
                    <path d="M23.7970531,13.7586566 C23.6772481,13.7586566 23.572156,13.6745829 23.5427302,13.5568797 C22.7692524,10.3683857 19.904442,8.14253521 16.5751246,8.14253521 C13.2458072,8.14253521 10.3788949,10.3683857 9.60751896,13.5568797 C9.57809317,13.6766847 9.47510293,13.7586566 9.3531961,13.7586566 L0.947930661,13.7586566 C0.775579632,13.7586566 0.632654388,13.6241387 0.632654388,13.460195 L0.632654388,1.03830986 C0.632654388,0.874366197 0.77347779,0.739848321 0.947930661,0.739848321 L32.2023185,0.739848321 C32.3746696,0.739848321 32.5175948,0.874366197 32.5175948,1.03830986 L32.5175948,13.460195 C32.5175948,13.6241387 32.3767714,13.7586566 32.2023185,13.7586566 L23.7970531,13.7586566 Z" id="Path" fill="#A9A9AA"></path>
                    <path d="M31.8870423,1.37040087 L31.8870423,13.1302059 L24.0829036,13.1302059 C23.1454821,9.80929577 20.0999133,7.51408451 16.5751246,7.51408451 C13.0503359,7.51408451 10.0047671,9.80929577 9.06734561,13.1302059 L1.26530878,13.1302059 L1.26530878,1.37040087 L31.8870423,1.37040087 M32.2023185,0.109295775 L0.947930661,0.109295775 C0.426673889,0.109295775 0.00210184182,0.525460455 0.00210184182,1.03830986 L0.00210184182,13.460195 C0.00210184182,13.9730444 0.424572048,14.3892091 0.947930661,14.3892091 L9.3531961,14.3892091 C9.76936078,14.3892091 10.1224702,14.1033586 10.2191549,13.7040087 C10.9043554,10.8749296 13.4896208,8.77098592 16.5751246,8.77098592 C19.6606284,8.77098592 22.243792,10.8749296 22.9310943,13.7040087 C23.027779,14.1033586 23.3808884,14.3892091 23.7970531,14.3892091 L32.2023185,14.3892091 C32.7235753,14.3892091 33.1481473,13.9730444 33.1481473,13.460195 L33.1481473,1.03830986 C33.1481473,0.525460455 32.7235753,0.109295775 32.2023185,0.109295775 L32.2023185,0.109295775 Z" id="Shape" fill="#515151"></path>
                </g>
            </g>
        </g>
    </g>
</svg>